<svg xmlns="http://www.w3.org/2000/svg" xmlns:xlink="http://www.w3.org/1999/xlink" width="128" zoomAndPan="magnify" viewBox="0 0 96 95.999999" height="128" preserveAspectRatio="xMidYMid meet" version="1.0"><defs><g/><clipPath id="91947ead79"><path d="M 48 0 C 21.492188 0 0 21.492188 0 48 C 0 74.507812 21.492188 96 48 96 C 74.507812 96 96 74.507812 96 48 C 96 21.492188 74.507812 0 48 0 Z M 48 0 " clip-rule="nonzero"/></clipPath></defs><g clip-path="url(#91947ead79)"><rect x="-9.6" width="115.2" fill="#5d54b6" y="-9.6" height="115.199999" fill-opacity="1"/></g><g fill="#ebeaf0" fill-opacity="1"><g transform="translate(17.871992, 78.615216)"><g><path d="M 53.125 -32 C 54.988281 -30.5625 56.46875 -28.640625 57.5625 -26.234375 C 58.65625 -23.835938 59.203125 -20.90625 59.203125 -17.4375 C 59.203125 -13.007812 58.320312 -9.515625 56.5625 -6.953125 C 54.800781 -4.398438 52.476562 -2.601562 49.59375 -1.5625 C 46.71875 -0.519531 43.625 0 40.3125 0 L 1.921875 0 L 1.921875 -61.59375 L 36.71875 -61.59375 C 40.1875 -61.59375 43.46875 -60.992188 46.5625 -59.796875 C 49.65625 -58.597656 52.175781 -56.71875 54.125 -54.15625 C 56.070312 -51.59375 57.046875 -48.3125 57.046875 -44.3125 C 57.046875 -41.332031 56.710938 -38.84375 56.046875 -36.84375 C 55.378906 -34.84375 54.40625 -33.226562 53.125 -32 Z M 32.3125 -41.359375 L 26.40625 -41.359375 L 26.40625 -37.046875 L 32.640625 -37.046875 C 33.066406 -37.046875 33.53125 -37.175781 34.03125 -37.4375 C 34.539062 -37.707031 34.796875 -38.269531 34.796875 -39.125 C 34.796875 -40.03125 34.488281 -40.628906 33.875 -40.921875 C 33.257812 -41.210938 32.738281 -41.359375 32.3125 -41.359375 Z M 26.40625 -20.3125 L 34.71875 -20.3125 C 35.144531 -20.3125 35.609375 -20.445312 36.109375 -20.71875 C 36.617188 -20.988281 36.875 -21.550781 36.875 -22.40625 C 36.875 -23.3125 36.566406 -23.910156 35.953125 -24.203125 C 35.347656 -24.492188 34.832031 -24.640625 34.40625 -24.640625 L 26.40625 -24.640625 Z M 26.40625 -20.3125 "/></g></g></g></svg>